<svg width="309" height="275" viewBox="0 0 309 275" fill="none" xmlns="http://www.w3.org/2000/svg">
<path fill-rule="evenodd" clip-rule="evenodd" d="M276.701 9.97584C258.987 22.0613 250.212 29.1803 228.359 49.2124C209.651 66.2646 209.983 66.099 204.685 60.6357C193.759 48.8814 153.694 38.2857 142.271 44.4113C136.807 47.2257 137.47 52.8546 143.264 52.8546C158.991 53.0202 173.561 60.3046 185.978 70.7345C197.069 80.1712 197.069 79.6744 181.342 95.2361C164.455 111.791 140.45 139.108 127.039 156.822L116.775 170.398L108.166 157.651C87.8031 127.188 65.7846 112.123 52.2092 119.241C47.2424 121.891 48.0702 123.546 62.9701 139.275C76.049 153.016 89.6243 172.551 99.2265 191.589C107.007 206.987 126.212 206.987 139.291 184.802C148.728 168.742 173.064 138.116 193.096 117.255L210.977 98.5474L215.28 108.15C253.69 194.073 159.985 293.57 81.1812 250.527C0.721583 206.49 18.9325 65.2712 106.677 52.689C123.894 50.2058 124.225 44.4112 107.173 42.2591C63.1352 36.299 6.84719 88.4482 0.887158 140.433C-10.3706 239.601 87.4725 304.167 183.163 260.957C241.273 234.799 268.423 140.764 232.498 91.0976C229.85 87.4559 227.697 83.9794 227.697 83.1509C227.697 79.6745 257.331 53.1856 288.786 29.0146C324.215 1.69815 305.839 -9.89077 276.701 9.97584Z" fill="#8FB27C"/>
</svg>
