<svg width="279" height="285" viewBox="0 0 279 285" fill="none" xmlns="http://www.w3.org/2000/svg">
<path fill-rule="evenodd" clip-rule="evenodd" d="M247.501 5.86427C243.573 8.22129 234.735 16.6674 228.056 24.5242C219.218 34.7381 214.895 38.4703 212.539 37.4881C154.399 13.1321 91.3482 25.31 56.7778 47.7019L51.4742 51.2376L37.7247 37.4881C19.2612 19.221 -23.5588 11.5605 16.7073 53.5946L32.6175 70.0938C31.2426 74.808 -29.4511 161.626 30.85 235.48L39.8856 246.676L30.85 259.443C13.565 284.192 33.0104 292.049 55.2059 269.067L61.6883 262.39L70.7229 267.103C143.006 303.834 224.521 259.64 224.718 259.443L232.574 268.085C245.931 283.013 259.876 287.925 271.466 281.639C285.804 273.978 253.002 251.782 250.055 248.837L241.414 240.391L244.949 235.088C289.143 167.518 289.928 97.0041 246.52 58.3086L239.449 52.0231C243.378 46.9162 247.697 41.0235 261.447 25.5063C279.519 5.07865 270.482 -8.27796 247.501 5.86427ZM199.183 57.1303C198.594 58.3088 137.113 129.216 135.739 129.021C133.774 128.824 74.2589 75.0043 72.0983 71.4688C70.134 68.1296 74.4553 63.2192 81.9194 58.1123C141.042 18.8283 203.307 50.452 199.183 57.1303ZM227.859 77.7544C249.27 108.004 251.43 160.644 232.77 197.375C221.181 219.963 222.556 219.569 208.021 204.249C201.147 196.981 154.791 149.055 154.791 149.055C154.791 149.055 201.146 95.6284 208.217 87.3787C223.145 70.0937 222.556 70.2904 227.859 77.7544ZM80.3483 114.092C106.865 137.662 111.775 143.359 118.257 150.038L88.2048 186.572C53.2423 228.998 56.9739 226.641 49.5099 211.124C34.1892 179.5 34.1893 139.43 49.7065 103.093C55.0099 90.9141 53.6352 90.5221 80.3483 114.092ZM205.075 241.176C204.879 241.176 140.059 294.602 81.7227 248.05L76.0267 243.533L138.685 169.876C186.808 220.945 187.004 221.338 205.075 241.176Z" fill="#FF6555"/>
</svg>
