<svg width="381" height="329" viewBox="0 0 381 329" fill="none" xmlns="http://www.w3.org/2000/svg">
<path d="M46.2647 87.8926C43.7972 76.1031 38.4509 72.4017 35.435 80.2156C31.7337 90.0858 34.6125 101.327 40.9185 101.327C46.8132 101.327 48.321 97.4886 46.2647 87.8926Z" fill="#303141"/>
<path d="M323.59 314.222C314.131 310.247 276.158 297.224 261.627 292.974C244.354 287.902 244.903 288.313 244.354 279.265C241.887 227.31 239.283 216.754 233.936 222.237C232.566 223.608 232.702 249.929 234.209 269.395C236.129 293.522 237.225 294.619 266.425 303.255C285.069 308.739 292.334 311.755 299.6 314.496C251.62 314.496 156.071 314.634 156.071 314.085C156.071 313.811 167.037 308.465 180.335 302.022C209.945 287.765 207.067 292.426 206.107 260.347C204.6 214.286 204.737 214.56 184.859 206.884C170.876 201.537 154.974 192.353 146.475 184.813C139.758 178.918 138.935 178.507 137.29 181.112C132.218 189.063 108.913 191.119 96.3012 184.813C43.2488 157.807 58.4654 62.5318 113.437 77.8854C121.251 80.0788 123.307 80.2159 125.364 78.7079C135.508 71.7165 210.22 67.467 253.814 67.3299C257.652 67.3299 293.294 71.4424 268.345 62.1205C243.258 52.6616 164.844 52.1132 129.339 66.3702C126.186 67.6039 126.323 55.1291 129.476 51.9761C135.508 46.2185 183.899 38.4046 232.428 40.8721C257.24 42.1059 279.86 47.4523 291.924 51.1536C295.762 52.3874 298.504 55.9516 298.504 60.0642V63.7655C298.504 74.4582 302.616 83.5059 307.414 83.5059C309.607 83.5059 311.116 79.2563 310.019 76.3775C307.963 71.1682 330.308 57.4596 340.864 57.4596C378.837 57.4596 376.368 119.011 354.434 154.242C334.283 186.595 320.575 191.804 283.973 180.837C263.958 174.805 242.847 173.298 184.174 180.7C167.449 182.894 172.521 189.337 194.043 188.925C245.999 187.829 274.376 188.788 271.772 191.53C268.756 194.82 255.047 202.223 245.862 205.376C231.331 210.448 239.008 221.826 251.345 216.069C260.53 211.682 276.021 202.086 282.739 195.917C288.496 190.707 289.045 190.433 291.924 192.215C324.413 212.916 359.369 190.296 376.094 137.518C394.052 80.7643 357.725 30.7278 315.639 54.4437L308.236 58.5563L306.729 54.0324C304.261 46.4926 298.366 41.0093 290.004 37.9934C249.701 24.0106 160.458 23.3251 121.937 43.4768C116.727 46.2185 113.437 51.7019 113.437 57.5966C113.437 57.8708 113.437 69.9345 113.437 69.5232L109.599 68.5635C55.1756 54.8549 24.3307 131.897 66.005 177.547C82.7295 195.917 107.817 202.36 132.081 194.546L140.443 191.804L144.967 196.328C151.684 203.182 169.094 212.778 182.391 217.028L194.318 220.729C195.826 233.067 195.963 231.285 195.141 285.16C185.956 289.272 135.508 311.481 125.227 314.771C114.26 318.198 117.55 326.012 125.775 326.286C136.879 326.697 172.658 326.971 214.195 326.971C273.28 326.971 326.469 328.616 326.332 328.616C332.089 329.302 334.557 318.883 323.59 314.222Z" fill="#303141"/>
<path d="M137.702 229.365C136.057 222.785 127.009 224.567 128.106 231.284C129.202 238.138 123.308 248.146 115.768 243.759C108.091 239.509 108.228 226.075 123.581 225.938C125.226 225.938 127.557 225.252 128.654 224.567C134 221.002 120.292 217.438 112.889 220.454C102.607 224.704 100.551 242.662 109.736 247.46C123.17 254.314 140.992 242.799 137.702 229.365Z" fill="#303141"/>
<path d="M119.88 94.0617C99.8657 79.5305 71.4889 89.949 72.5855 122.713C73.8193 156.025 96.027 176.862 126.46 173.16C137.427 171.79 137.702 171.515 134.274 160.686C118.235 108.044 127.557 99.6822 119.88 94.0617ZM115.082 165.072C97.2611 159.178 88.6246 146.017 87.665 123.672C86.7054 98.7226 91.9143 91.0457 105.075 97.763L111.655 101.053L111.929 111.883C112.203 123.947 116.179 146.017 120.429 158.218C123.719 167.814 123.719 167.951 115.082 165.072Z" fill="#303141"/>
<path d="M38.7251 50.0574C45.3052 54.9925 49.0065 50.1945 49.0065 36.8972C49.0065 18.2534 43.9342 8.52026 37.9024 15.7858C34.7494 19.6243 35.435 47.5899 38.7251 50.0574Z" fill="#303141"/>
<path d="M322.219 30.5883C332.226 28.9433 338.395 14.9604 331.678 8.92863C327.565 5.2273 325.782 6.04992 326.742 11.2592C327.839 17.0168 322.219 25.6532 315.639 22.3632C308.921 19.0731 308.373 5.50151 324.138 5.36442C327.428 5.36442 328.662 3.44518 326.331 2.07432C318.928 -2.44953 306.454 0.566502 302.341 9.75129C297.68 19.8957 306.591 33.193 322.219 30.5883Z" fill="#303141"/>
<path d="M45.031 63.6258C45.031 67.7384 59.973 67.3271 76.8346 62.8033C92.3254 58.6907 77.5205 53.7555 60.7959 57.4569C49.2807 60.0615 45.031 61.7066 45.031 63.6258Z" fill="#303141"/>
<path d="M4.59024 60.0624C-0.756131 61.1591 -1.71573 65.2716 3.21937 66.5054C9.11408 68.0133 33.6525 66.3683 36.1201 64.312C41.6035 59.6511 19.6697 56.7723 4.59024 60.0624Z" fill="#303141"/>
<path d="M335.791 240.196C341.823 241.841 343.741 239.099 343.741 229.092C343.741 216.069 342.919 213.738 338.258 213.738C335.516 213.738 334.282 214.561 333.597 216.754C331.54 225.117 332.775 239.373 335.791 240.196Z" fill="#303141"/>
<path d="M305.632 171.376C337.299 187.552 375.958 117.638 353.613 84.4634C347.581 75.5528 335.928 71.303 326.743 74.5931C318.518 77.609 303.164 93.6481 304.809 97.7607C306.591 102.559 302.616 133.129 298.64 145.193C292.745 162.74 293.432 165.07 305.632 171.376ZM306.18 155.885C309.744 145.604 313.583 121.614 313.583 109.413C313.583 89.1242 334.009 72.2626 344.976 83.3666C355.395 93.7852 344.838 137.516 327.428 156.571C317.147 167.812 302.204 167.401 306.18 155.885Z" fill="#303141"/>
<path d="M331.541 271.997C326.88 284.061 331.679 297.084 340.179 295.302C346.622 294.068 347.855 284.609 343.057 272.957C340.727 267.062 333.598 266.514 331.541 271.997Z" fill="#303141"/>
<path d="M375.135 254.313C369.241 253.079 348.266 252.668 345.387 253.765C334.969 257.603 358.821 263.635 372.667 260.619C378.287 259.386 379.933 255.273 375.135 254.313Z" fill="#303141"/>
<path d="M305.768 252.942C303.301 253.901 303.575 257.054 306.179 258.014C312.76 260.618 332.775 258.562 332.775 255.409C332.912 252.393 312.074 250.474 305.768 252.942Z" fill="#303141"/>
<path d="M256.281 87.8937C254.087 83.9182 221.461 81.4505 195.826 83.5068C174.44 85.1518 154.151 89.2644 144.281 93.2399C134.959 97.0783 137.153 102.973 146.475 101.328C159.498 98.9975 209.397 94.3366 223.928 94.3366C251.756 94.1996 258.885 92.8288 256.281 87.8937Z" fill="#303141"/>
</svg>
