<svg width="383" height="250" viewBox="0 0 383 250" fill="none" xmlns="http://www.w3.org/2000/svg">
<path fill-rule="evenodd" clip-rule="evenodd" d="M357.188 9.11947C380.863 47.6379 315.848 140.99 255.494 155.097C246.539 157.182 246.539 156.691 255.862 145.773C285.548 110.69 299.901 77.3238 291.804 62.2354C281.623 43.4669 253.531 43.9578 235.253 63.0943C205.076 94.7432 196.858 131.912 215.381 152.52L219.797 157.427L210.842 165.646C187.78 186.745 154.291 204.287 136.504 204.287H132.456C160.792 170.43 211.578 105.292 172.078 85.4194C123.255 60.8853 62.2884 160.739 101.543 200.729L107.063 206.373C106.94 206.496 42.1705 260.47 22.1753 232.501C10.399 216.064 16.7777 178.035 36.1596 147.981L39.9625 142.093C40.9438 140.498 40.5759 138.536 39.1038 137.432C24.7514 127.373 -3.7081 184.783 1.32138 213.487C9.17227 258.507 61.6752 262.556 112.706 221.952L122.397 214.346L129.144 215.573C157.726 220.848 197.471 204.778 228.384 175.338C237.339 166.751 237.707 166.628 241.878 167.732C306.77 185.274 412.88 59.2913 374.852 9.48724C368.596 1.51368 347.251 -6.95032 357.188 9.11947ZM275.121 63.4621C276.716 79.6546 262.731 106.887 237.952 136.451C228.384 147.859 227.893 147.982 225.808 139.15C220.288 115.965 245.803 69.4732 268.62 61.2543C274.753 59.0462 274.63 59.046 275.121 63.4621ZM168.153 95.8463C175.022 113.756 147.667 167.487 117.49 195.578L114.423 198.399L110.866 191.285C102.77 174.724 106.327 149.085 119.698 128.967C135.523 105.047 164.227 85.4194 168.153 95.8463Z" fill="#303141"/>
</svg>
