<svg width="252" height="321" viewBox="0 0 252 321" fill="none" xmlns="http://www.w3.org/2000/svg">
<path d="M177.268 69.6627C191.935 72.3294 196.435 10.9964 182.268 1.66307C177.102 -1.83693 171.602 0.329068 169.102 6.82907C157.768 34.8291 161.935 66.8294 177.268 69.6627Z" fill="#303141"/>
<path d="M114.935 79.8302C122.935 83.9969 152.435 85.1635 153.935 81.3302C157.268 72.4968 133.768 65.997 113.268 69.8304C107.602 70.997 108.602 76.497 114.935 79.8302Z" fill="#303141"/>
<path d="M175.935 152.163C186.768 152.163 188.768 104.163 178.268 96.1634C173.935 92.9967 164.935 93.33 163.102 96.83C150.935 119.33 158.602 152.163 175.935 152.163Z" fill="#303141"/>
<path d="M172.768 174.33C167.935 176.83 166.768 181.997 165.268 209.497C163.768 239.663 189.268 266.163 193.935 199.33C195.268 179.33 185.602 167.997 172.768 174.33Z" fill="#303141"/>
<path d="M228.1 86.1633C244.1 87.33 249.602 85.1633 246.268 78.83C242.602 71.9963 195.935 66.496 193.602 72.6626C190.935 79.4966 203.6 84.33 228.1 86.1633Z" fill="#303141"/>
<path d="M30.1015 164.663C13.7682 162.997 6.26786 161.33 1.93452 164.497C-6.06548 170.33 11.9347 178.497 34.1014 179.33C55.7684 179.997 52.2684 166.997 30.1015 164.663Z" fill="#303141"/>
<path d="M140.435 237.997C129.102 236.663 110.602 235.83 107.435 236.663C93.6017 239.997 111.768 250.33 134.268 252.163C162.768 254.497 168.602 241.497 140.435 237.997Z" fill="#303141"/>
<path d="M161.435 268.497C148.768 291.997 156.268 320.497 175.102 320.497C182.602 320.497 192.768 283.163 187.768 273.663C184.102 266.83 164.268 262.997 161.435 268.497Z" fill="#303141"/>
<path d="M68.7682 189.497C61.2682 184.663 51.6016 184.33 49.6016 188.997C47.1016 194.997 44.7682 224.163 46.6016 227.663C49.9349 234.33 69.7682 238.33 71.9349 232.83C75.1016 224.163 72.9349 192.163 68.7682 189.497Z" fill="#303141"/>
<path d="M247.435 245.997C239.268 238.664 195.935 234.997 193.435 241.33C190.602 248.83 201.602 253.164 227.268 254.497C251.602 255.83 256.268 253.83 247.435 245.997Z" fill="#303141"/>
<path d="M53.4351 99.9968C45.6017 101.33 43.1017 141.33 50.2684 149.997C56.2684 157.163 75.1017 164.663 74.6017 142.33C73.9351 110.33 73.2684 96.8301 53.4351 99.9968Z" fill="#303141"/>
<path d="M118.435 164.33C110.435 160.997 78.1018 161.164 76.9351 164.664C74.1018 171.83 87.4351 177.164 108.268 177.164C129.268 177.164 134.268 170.997 118.435 164.33Z" fill="#303141"/>
</svg>
