<svg width="411" height="250" viewBox="0 0 411 250" fill="none" xmlns="http://www.w3.org/2000/svg">
<path d="M109.661 86.2958C115.186 86.3705 115.411 84.952 111.081 78.5313C106.153 71.2147 101.524 68.8255 98.7617 72.1106C95.9993 75.4702 104.211 86.2212 109.661 86.2958Z" fill="#303141"/>
<path d="M83.4558 49.5641C90.6977 61.8082 102.793 61.9576 95.6252 49.6388C84.7996 31.1979 70.9131 12.4584 66.5082 10.144C63.6712 8.72545 58.4451 8.72545 57.8478 10.144C57.1012 12.3091 66.0604 19.999 83.4558 49.5641Z" fill="#303141"/>
<path d="M15.3666 78.4571C55.832 91.6718 90.847 105.036 95.5505 106.529C98.2383 107.35 97.417 101.975 94.356 98.6898C89.3538 93.3143 4.61572 68.1541 4.61572 72.1111C4.61572 73.9775 8.34864 76.2173 15.3666 78.4571Z" fill="#303141"/>
<path d="M225.01 55.9848C228.37 56.2834 234.865 48.2202 233.073 45.9804C231.953 44.6366 227.1 44.5619 225.533 45.8311C221.426 49.2654 221.128 55.6115 225.01 55.9848Z" fill="#303141"/>
<path d="M92.34 133.481C87.7858 134.526 70.9131 141.694 31.8663 159.089C7.67666 169.84 7.15397 170.288 11.8575 174.021C17.3076 178.277 15.8145 176.634 74.4217 148.264C95.625 138.035 104.435 130.719 92.34 133.481Z" fill="#303141"/>
<path d="M48.6647 125.045C53.8162 125.194 54.2642 125.045 54.4882 123.626C54.8615 120.938 52.9203 120.266 42.1694 119.594C42.0947 119.594 16.7853 117.504 5.43703 117.579C-3.52209 117.579 0.360053 122.208 4.54098 123.327C11.1857 124.97 26.4163 124.447 48.6647 125.045Z" fill="#303141"/>
<path d="M318.259 130.494C313.63 134.376 315.646 135.87 328.338 137.885C336.7 139.229 337.671 132.66 329.458 130.271C322.067 128.106 321.022 128.105 318.259 130.494Z" fill="#303141"/>
<path d="M245.317 26.6429C258.756 5.36499 259.876 3.05055 257.337 2.07997C255.62 1.40804 251.663 1.63202 249.871 2.45327C246.81 3.94646 232.551 30.3766 232.178 35.3788C231.655 41.7248 238.747 37.0205 245.317 26.6429Z" fill="#303141"/>
<path d="M313.705 109.067C315.497 109.813 319.23 109.365 337.372 106.155C389.783 96.8974 399.115 98.3166 389.932 92.1199C386.573 89.8801 382.392 89.9541 364.474 92.7165C313.78 100.406 301.909 104.214 313.705 109.067Z" fill="#303141"/>
<path d="M311.914 78.2331C309.002 76.292 306.762 76.1427 303.999 77.5612C300.49 79.353 300.117 81.7421 303.178 83.31C309.3 86.4457 317.364 81.8168 311.914 78.2331Z" fill="#303141"/>
<path d="M268.312 69.1241C270.029 69.4974 271.821 69.0494 273.165 68.0042C285.185 58.5225 299.595 47.1003 309.45 41.7248C327.294 31.9445 347.377 18.2064 347.377 15.7427C347.377 9.69525 339.761 9.77065 330.055 16.042C287.873 43.0687 261.519 64.0473 260.399 65.8391C259.503 67.1829 264.728 68.3775 268.312 69.1241Z" fill="#303141"/>
<path d="M329.832 67.1837C343.346 65.8398 374.104 54.4169 371.566 50.3107C369.476 46.951 363.952 46.3537 357.083 48.5935C344.689 52.6998 326.174 61.0616 323.859 63.6C323.859 63.6 319.753 68.2289 329.832 67.1837Z" fill="#303141"/>
<path d="M130.416 157.745C126.609 156.028 124.07 156.625 120.935 160.06C116.828 164.539 117.052 164.987 82.8584 211.35C74.6459 222.474 74.4966 223.52 80.992 224.64C85.0982 225.312 85.9941 224.416 99.5075 206.573C131.312 164.465 134.448 159.612 130.416 157.745Z" fill="#303141"/>
<path d="M184.619 43.9647C183.425 38.7386 179.841 35.6776 177.601 37.9173C176.705 38.8133 177.079 45.4579 178.124 46.2792C181.11 48.8176 185.366 47.3244 184.619 43.9647Z" fill="#303141"/>
<path d="M220.53 190.669C219.933 191.341 220.007 192.237 220.754 193.805C223.367 199.554 230.012 214.934 231.655 219.189C235.015 227.7 238.598 233.375 240.763 233.599C243.675 233.897 243.525 233.225 237.851 219.339C227.473 193.88 223.442 187.235 220.53 190.669Z" fill="#303141"/>
<path d="M191.488 168.87C188.054 167.302 184.619 167.824 183.723 170.064C182.454 173.349 182.902 244.873 184.171 247.337C185.739 250.398 189.547 250.92 191.712 248.382C193.429 246.441 193.429 245.993 193.504 228.672C193.578 218.966 193.653 207.617 193.802 203.511C194.474 184.249 193.429 169.766 191.488 168.87Z" fill="#303141"/>
<path d="M236.881 172.453C246.288 186.041 279.138 230.24 279.212 230.24C283.319 235.764 304.448 250.248 275.331 210.977C260.772 191.341 250.394 176.036 243.152 169.989C238.598 166.331 231.879 165.286 236.881 172.453Z" fill="#303141"/>
<path d="M363.876 199.704C353.2 192.761 301.984 154.162 293.099 150.429C290.113 149.16 289.366 149.16 286.38 150.429C280.706 152.892 283.17 155.282 315.497 178.426C344.39 199.107 359.322 208.588 366.34 210.38C370.073 211.351 379.182 209.634 363.876 199.704Z" fill="#303141"/>
<path d="M54.9362 184.324C41.2735 193.507 33.8823 201.122 37.8393 201.869C41.199 202.541 64.4179 188.057 65.0152 184.996C65.6125 181.636 59.4158 181.263 54.9362 184.324Z" fill="#303141"/>
<path d="M408.672 146.621C408.224 145.949 354.096 130.495 347.6 136.99C343.345 141.246 344.689 143.261 353.35 145.277C400.385 156.401 415.092 156.775 408.672 146.621Z" fill="#303141"/>
<path d="M180.065 12.085C177.377 1.11012 175.585 -1.50295 172.002 0.736826C171.031 1.3341 171.106 3.57388 172.3 16.042C172.823 21.1935 174.913 23.9559 178.422 23.9559C182.529 24.0305 182.678 22.836 180.065 12.085Z" fill="#303141"/>
<path d="M81.5899 170.362C78.5289 168.719 75.6911 169.467 72.1077 172.752C66.4336 177.978 71.9585 179.769 79.7235 175.215C83.3071 173.124 83.9044 171.557 81.5899 170.362Z" fill="#303141"/>
<path d="M142.213 47.175C139.6 40.157 129.297 7.82953 123.548 3.27531C121.532 1.70747 119.666 2.15542 119.666 4.17122C119.666 6.18703 134 51.8039 135.717 58.8965C137.584 66.8851 154.158 79.2039 142.213 47.175Z" fill="#303141"/>
<path d="M138.255 223.744C134.224 228.597 139.151 235.615 144.676 233.002C147.886 231.434 148.782 227.029 146.468 224.491C144.452 222.251 139.823 221.878 138.255 223.744Z" fill="#303141"/>
<path d="M151.844 177.605C150.574 181.636 143.78 205.378 143.332 206.722C141.989 210.455 146.991 213.143 150.35 210.455C152.441 208.812 158.414 181.263 158.414 173.349C158.414 166.555 154.531 169.094 151.844 177.605Z" fill="#303141"/>
</svg>
