<svg width="349" height="250" viewBox="0 0 349 250" fill="none" xmlns="http://www.w3.org/2000/svg">
<path d="M172.515 81.4784C231.664 41.3524 249.048 30.3098 249.048 27.3577C249.048 25.2805 241.176 26.7015 235.271 29.8722C203.347 46.9282 135.122 95.3627 136.762 99.9549C138.075 103.89 143.978 100.83 172.515 81.4784Z" fill="black"/>
<path d="M348.541 6.36611C348.541 2.53946 339.467 -1.17791 333.891 0.352777C329.736 1.44606 311.695 14.0196 276.927 35.9955C243.362 57.0969 235.709 62.8914 237.676 65.9523C240.738 70.8728 257.356 58.5183 316.834 25.7182C349.525 7.56893 348.541 8.11538 348.541 6.36611Z" fill="black"/>
<path d="M202.034 84.3197C133.372 123.351 148.57 117.557 94.6687 144.562C46.562 168.725 40.1114 170.255 22.7274 162.492C3.26599 153.746 0.642144 156.261 8.62345 176.16C12.1221 184.905 12.9967 188.296 12.5593 191.904C11.5753 200.103 7.42064 212.021 3.48457 217.378C-8.9794 234.652 16.8232 227.327 18.7912 226.453C28.9593 222.079 39.2366 226.453 54.1059 241.432C63.9459 251.272 79.2528 253.239 75.5354 244.165C67.5541 224.704 70.0688 204.695 96.0901 182.064C117.192 163.804 149.007 138.44 177.215 119.197C218.434 90.9887 221.932 88.0371 218.543 84.1004C216.247 81.3681 206.954 81.4772 202.034 84.3197ZM76.4101 179.22C51.4821 204.258 53.778 221.095 53.1221 223.064C38.9087 215.738 41.0953 216.285 22.946 215.301L25.7888 209.179C32.0208 195.73 27.2102 177.69 27.2102 177.581L35.4102 180.204C51.0448 185.125 63.9459 182.72 80.3459 171.896C83.8446 169.6 87.0155 167.632 87.3435 167.632C87.7808 167.522 82.8607 172.771 76.4101 179.22Z" fill="black"/>
</svg>
