<svg width="100" height="77" viewBox="0 0 100 77" fill="none" xmlns="http://www.w3.org/2000/svg">
<path d="M84.6126 6.33373C78.2791 3.38126 71.4218 1.23835 64.2787 0.000219045C64.2161 -0.00178388 64.1538 0.00996921 64.0962 0.0346522C64.0386 0.0593351 63.9871 0.0963485 63.9454 0.143081C63.0882 1.71455 62.0882 3.76223 61.4215 5.3337C53.8451 4.19081 46.1401 4.19081 38.5637 5.3337C37.8971 3.71461 36.897 1.71455 35.9922 0.143081C35.9446 0.0478404 35.8018 0.000219045 35.6589 0.000219045C28.5158 1.23835 21.7061 3.38126 15.325 6.33373C15.2774 6.33373 15.2298 6.38135 15.1822 6.42897C2.22941 25.8105 -1.34211 44.6681 0.419841 63.3353C0.419841 63.4305 0.467461 63.5258 0.562701 63.5734C9.13436 69.8593 17.3727 73.6689 25.5158 76.1928C25.6586 76.2404 25.8015 76.1928 25.8491 76.0975C27.7539 73.4784 29.4683 70.7164 30.9445 67.8116C31.0397 67.6211 30.9445 67.4306 30.754 67.383C28.0396 66.3354 25.4681 65.0972 22.9443 63.6686C22.7538 63.5734 22.7538 63.2877 22.8966 63.1448C23.4205 62.7638 23.9443 62.3353 24.4681 61.9543C24.5634 61.8591 24.7062 61.8591 24.8015 61.9067C41.1829 69.3831 58.85 69.3831 75.0409 61.9067C75.1362 61.8591 75.279 61.8591 75.3743 61.9543C75.8981 62.3829 76.4219 62.7638 76.9457 63.1924C77.1362 63.3353 77.1362 63.621 76.8981 63.7162C74.4219 65.1925 71.8028 66.383 69.0884 67.4306C68.8979 67.4783 68.8503 67.7164 68.8979 67.8592C70.4218 70.7641 72.1361 73.526 73.9933 76.1452C74.1362 76.1928 74.279 76.2404 74.4219 76.1928C82.6126 73.6689 90.8509 69.8593 99.4225 63.5734C99.5178 63.5258 99.5654 63.4305 99.5654 63.3353C101.661 41.7633 96.0891 23.0485 84.8031 6.42897C84.7555 6.38135 84.7079 6.33373 84.6126 6.33373ZM33.4207 51.954C28.5159 51.954 24.4205 47.4301 24.4205 41.8585C24.4205 36.2869 28.4206 31.763 33.4207 31.763C38.4685 31.763 42.4686 36.3345 42.421 41.8585C42.421 47.4301 38.4209 51.954 33.4207 51.954ZM66.6121 51.954C61.7072 51.954 57.6119 47.4301 57.6119 41.8585C57.6119 36.2869 61.612 31.763 66.6121 31.763C71.6599 31.763 75.66 36.3345 75.6124 41.8585C75.6124 47.4301 71.6599 51.954 66.6121 51.954Z" fill="#303141"/>
</svg>
