<svg width="217" height="227" viewBox="0 0 217 227" fill="none" xmlns="http://www.w3.org/2000/svg">
<path d="M144.06 223.761C144.028 223.775 143.997 223.788 143.966 223.799L143.903 223.82C139.801 225.357 134.787 226.395 129.914 226.349L129.581 226.344C129.506 226.347 129.431 226.345 129.355 226.338C122.584 226.16 116.11 223.868 112.551 217.97C112.551 217.947 112.34 217.604 112.301 217.54C112.149 217.269 112.004 216.996 111.866 216.721C109.875 221.673 104.471 224.426 98.1755 225.614C92.0566 226.77 85.0081 226.458 79.6517 225.275C78.3522 224.988 77.159 224.655 76.1114 224.286C74.0643 223.563 72.4285 222.511 71.1443 221.203C66.8581 221.569 63.3069 220.926 60.5177 219.196C59.9814 218.863 59.4756 218.493 59.0016 218.085C58.9356 218.035 58.872 217.979 58.8129 217.919C56.6068 215.94 55.0987 213.111 54.3133 209.377C53.6394 206.176 53.9689 202.972 54.3477 199.29C54.9842 193.101 55.7703 185.457 51.654 174.628C45.3827 158.131 51.4272 140.816 52.5793 137.799C50.6164 121.316 57.1337 109.828 61.6479 104.044C59.7413 104.361 58.0075 104.721 57.0647 105.498C52.8015 109.008 48.2709 108.583 48.2584 108.582L48.2588 108.576C47.5681 108.522 46.9383 108.077 46.6808 107.385C44.4038 101.258 39.3503 97.6475 35.3343 94.7785C32.6009 92.8258 30.2916 91.1759 29.1912 89.0746C28.8849 88.4897 28.6817 87.8345 28.5634 87.1314C21.3986 83.6371 16.8907 79.8045 14.1642 76.1462C9.97009 70.5192 9.9229 65.2248 10.9807 62.0009C11.4243 60.6493 12.0897 59.2531 12.7748 57.8122C14.4341 54.327 16.2479 50.515 14.0076 48.8352C9.95607 45.7965 4.18709 44.1089 3.44591 43.9C3.24741 43.8618 3.05527 43.8165 2.86931 43.7624C1.37111 43.3282 0.308185 42.431 0.0490522 40.8498C-0.0234653 40.4062 -0.0172798 39.9263 0.0789977 39.4099C0.295313 38.2475 1.05687 36.9314 2.69161 35.5964C6.68585 32.333 8.65686 32.5941 11.1487 30.2672C19.5531 22.4166 17.2037 17.2342 31.8912 8.28453C50.0175 -2.76098 64.2299 4.06218 71.2768 7.44534L72.5416 8.03893C77.2229 10.2165 81.6284 9.01218 82.8197 8.61231C96.9326 -0.158929 118.852 -6.54212 144.045 11.7737C154.584 6.75045 163.596 4.38459 171.574 4.56032C179.957 4.74553 187.131 7.70959 193.655 13.3231C196.612 15.8678 198.829 18.2941 200.558 20.5371C202.288 22.7837 203.524 24.8366 204.526 26.6432C205.829 28.9922 206.891 30.8678 208.184 32.4101C209.418 33.8807 210.922 35.1031 213.181 36.2558L213.178 36.2618C214.402 36.8865 215.312 37.6154 215.911 38.4351V38.4421C216.637 39.4372 216.92 40.5266 216.765 41.6938C216.685 42.2945 216.5 42.8831 216.197 43.4116L216.191 43.4085C215.728 44.2149 215.017 44.8904 214.013 45.3001L214.011 45.2937C213.95 45.3187 213.887 45.3421 213.824 45.3651C213.72 45.4107 213.61 45.4462 213.496 45.4719L213.488 45.4742C213.195 45.5575 212.882 45.6196 212.549 45.6565C210.008 46.2588 202.291 48.9287 202.476 59.1483C203.215 61.0164 203.903 63.1636 204.422 65.5666C206.394 74.6975 198.031 82.257 194.637 85.3241C194.329 85.602 194.073 85.8335 193.807 86.09C193.474 86.4131 192.814 86.9508 191.902 87.6965C186.479 92.1261 171.341 104.491 169.933 116.465C169.818 117.475 168.904 118.201 167.894 118.086C167.052 117.989 166.408 117.34 166.283 116.542C166.208 116.143 165.017 110.462 157.236 106.823C156.521 106.489 155.46 106.011 154.43 105.547C151.403 104.186 148.671 102.956 146.467 101.418C151.573 116.273 150.505 135.926 149.868 147.632C149.761 149.607 149.664 151.359 149.618 152.692L149.618 152.713C149.508 155.826 149.156 159.35 148.785 163.062C147.705 173.888 146.458 186.387 150.783 193.327L151.102 193.845C154.211 198.998 155.922 204.358 155.791 209.142C155.783 209.468 155.765 209.791 155.74 210.111C155.738 210.156 155.734 210.2 155.728 210.244C155.326 214.811 153.188 218.755 148.933 221.406C148.869 221.436 148.789 221.493 148.729 221.532L148.117 221.888C146.926 222.558 145.56 223.19 144.07 223.757L144.06 223.761Z" fill="#374C40"/>
<path d="M63.7781 44.0222C62.705 41.4806 57.0686 31.3689 37.3568 38.5733C36.4015 38.9195 35.3461 38.426 35 37.4711C34.6543 36.5157 35.1472 35.4603 36.1026 35.1142C53.3781 28.8005 61.5469 34.5338 65.0923 39.1175C65.6269 34.7069 64.3231 29.2107 56.0187 25.4421C47.9093 21.762 41.7733 21.2569 36.8572 22.904C31.9478 24.5483 28.0996 28.3907 24.6349 33.384C22.7576 36.0906 20.7155 38.1099 18.6669 39.6144C16.5985 41.1336 14.5241 42.1307 12.6007 42.7828C12.3758 42.8587 12.0055 42.9711 11.5347 43.0973C13.1195 43.8706 14.7579 44.8041 16.2126 45.895C20.8687 49.3866 18.3801 54.6157 16.1039 59.3981C15.462 60.747 14.8395 62.055 14.4833 63.1393C13.7034 65.5161 13.8042 69.5089 17.1184 73.9557C19.3323 76.9257 22.9513 80.0625 28.6273 83.0395C29.4202 77.8416 32.3422 72.2708 32.3543 72.2481C32.8198 71.3446 33.9302 70.99 34.8333 71.4553C35.7367 71.9207 36.0915 73.0311 35.626 73.9347C35.612 73.9627 30.5232 83.6994 32.448 87.3745C33.1347 88.6857 35.119 90.1028 37.4669 91.7808C40.4409 93.9054 43.9324 96.3998 46.7117 99.9919C49.5211 103.622 49.5433 106.129 54.7295 102.659C56.5852 101.13 59.1994 100.711 61.944 100.271C65.2031 99.7491 68.6983 99.1887 69.9311 96.5413L69.935 96.5335L69.9419 96.5176L69.9499 96.502C71.8623 92.3717 72.9946 89.0828 73.4858 87.5448C62.8561 75.305 66.0627 59.8778 67.5913 52.5269L67.6569 52.2131C68.2064 49.5631 68.0268 46.7899 67.5875 44.3601L67.489 44.626L67.448 44.7343C66.9487 46.052 66.1255 48.9565 64.5579 48.9565C63.5391 48.9565 62.7128 48.1302 62.7128 47.1113C62.7128 46.5755 62.9599 45.9896 63.3208 45.1353C63.4546 44.8176 63.612 44.4431 63.7781 44.0222Z" fill="#BABDE6"/>
<path d="M153.212 61.201C153.212 54.9437 152.455 52.0516 151.63 49.9696C151.612 49.9278 151.595 49.8861 151.58 49.8432C151.487 49.612 151.392 49.3903 151.298 49.1744C151.28 49.137 151.264 49.0987 151.249 49.0599L151.046 48.6027C149.901 46.0266 148.909 43.7952 149.401 37.2838C149.476 36.2693 150.361 35.5078 151.375 35.5829C152.39 35.6586 153.151 36.543 153.076 37.5574C152.957 39.1305 152.936 40.4063 152.988 41.4742C154.037 37.5672 155.509 33.9717 157.587 30.8749C161.027 25.7488 166.062 22.0401 173.466 20.5984C191.018 17.1795 196.869 26.6009 201.449 33.9783C203.118 36.6669 204.595 39.0436 206.272 40.0072C208.402 41.231 210.015 41.8168 211.21 41.9759C211.492 42.0133 211.74 42.0269 211.955 42.0188C212.251 41.9526 212.48 41.9097 212.629 41.8844C212.812 41.8099 212.933 41.7034 213.002 41.5846L212.997 41.5815C213.061 41.4689 213.101 41.3442 213.118 41.2182C213.145 41.0126 213.088 40.8071 212.945 40.6092C212.676 40.2486 212.2 39.8881 211.512 39.5365L211.509 39.5423C208.766 38.1416 206.91 36.6234 205.359 34.7739C203.869 32.9959 202.718 30.966 201.311 28.4313C200.38 26.7519 199.236 24.8487 197.646 22.786C196.055 20.721 194.007 18.481 191.262 16.1191C185.391 11.0678 178.97 8.40066 171.502 8.23582C164.546 8.08303 156.624 10.0752 147.345 14.3037C150.176 16.5834 153.045 19.1679 155.946 22.113C156.658 22.837 156.649 24.0025 155.924 24.7146C155.2 25.4268 154.035 25.4169 153.323 24.6928C125.124 -3.92954 100.184 2.30597 84.8825 11.691C84.7948 11.756 84.7009 11.8134 84.6003 11.8624C74.8228 17.9299 69.06 25.2232 69.0172 25.2765C68.3807 26.0683 67.222 26.1945 66.43 25.5576C65.6383 24.9211 65.5124 23.7624 66.1489 22.9704C66.1847 22.926 69.9959 18.1088 76.6835 12.899C74.9131 12.7411 72.969 12.3029 70.9923 11.3836L70.9859 11.3805C70.7697 11.2834 70.4368 11.1181 69.6915 10.7615C63.2405 7.66418 50.2319 1.41852 33.8076 11.4268C19.6542 20.0506 21.8404 25.5914 13.666 32.9875C11.1443 35.2684 9.14934 35.0696 5.01114 38.45C2.39276 40.5894 3.91868 40.5153 6.22224 40.3357L6.26011 40.333C8.41938 40.1599 10.7291 39.5277 11.4189 39.2946C13.0254 38.7501 14.7603 37.9156 16.4905 36.645C18.2403 35.3601 19.9898 33.6268 21.6081 31.2941C25.4933 25.6942 29.8977 21.3559 35.6893 19.416C41.4733 17.4781 48.4914 17.9816 57.5319 22.0839C62.5688 24.3698 65.5486 27.1554 67.2059 30.0432C69.856 34.6596 72.2319 48.2783 71.2598 52.9625L71.1944 53.2763C69.643 60.7374 66.2053 77.2694 79.7141 88.5046C82.455 90.7843 85.9675 92.9971 89.8418 95.0788C92.9179 96.7322 96.2172 98.2979 99.5387 99.7485C99.7737 89.8116 92.2965 83.5204 95.1949 72.3412C95.4494 71.3582 96.453 70.7677 97.436 71.0222C98.419 71.2767 99.0094 72.2803 98.7549 73.2633C96.3773 82.9895 103.01 89.2585 103.264 98.6744C103.576 110.235 99.9305 119.935 104.125 132.026C105.671 136.483 108.094 140.245 111.209 144.459C115.123 149.756 120.459 153.768 127.502 154.495L127.581 154.504C127.601 154.504 134.594 155.649 136.171 145.349L132.787 142.205C132.402 142.83 131.831 143.521 130.968 144.233C130.25 144.825 129.275 145.23 128.18 145.279C127.36 145.317 126.473 145.157 125.586 144.727C124.768 144.33 123.947 143.699 123.187 142.777C121.37 140.573 119.813 136.502 119.495 129.524C119.137 121.689 119.601 111.841 121.041 102.972C121.243 101.73 121.464 100.505 121.705 99.3058C121.715 99.2419 121.728 99.1784 121.744 99.1161C123.609 89.9476 129.868 81.1191 130.567 75.4983C130.846 73.251 130.178 72.0529 129.382 71.513C128.542 70.9439 128.323 69.8011 128.892 68.9619C129.461 68.1223 130.604 67.903 131.443 68.472C133.205 69.6651 134.718 71.999 134.227 75.9454C133.469 82.0463 127.976 88.9023 126.068 96.6347C141.183 90.5549 153.212 79.3445 153.212 61.201Z" fill="#BABDE6"/>
<path d="M194.859 52.9346C194.211 52.1503 194.32 50.9885 195.105 50.34C195.888 49.6914 197.051 49.8009 197.699 50.5848C197.704 50.5914 198.477 51.503 199.529 53.2172C200.84 48.6613 203.705 45.8997 206.442 44.2424C205.812 43.9458 205.146 43.597 204.441 43.1929C201.943 41.7576 200.243 39.0204 198.321 35.9249C194.328 29.4934 189.228 21.2807 174.158 24.2163C167.832 25.4476 163.55 28.588 160.643 32.9213C159.323 34.8877 158.272 37.1097 157.433 39.5205C162.339 34.6059 170.235 29.4225 181.232 30.3961C182.246 30.4837 182.998 31.3779 182.911 32.3925C182.823 33.407 181.929 34.1588 180.914 34.0715C166.309 32.7787 157.887 43.9369 155.384 47.8847C155.323 48.2582 155.264 48.6338 155.208 49.0115C156.107 51.3735 156.902 54.6494 156.902 61.201C156.902 75.9165 150.211 83.2546 145.333 88.6033L144.603 89.4058C144.288 96.943 149.254 99.1798 155.943 102.19C156.743 102.549 157.573 102.923 158.792 103.494C163.271 105.588 165.978 108.36 167.598 110.756C171.902 99.2867 184.608 88.9061 189.582 84.8432C190.41 84.1673 191.007 83.6793 191.256 83.4381C191.427 83.2733 191.768 82.9652 192.172 82.5993C195.108 79.9461 202.344 73.4064 200.819 66.3449C198.971 57.7856 194.871 52.9487 194.859 52.9346Z" fill="#BABDE6"/>
<path d="M65.4345 208.082C64.9466 207.549 64.4209 207.2 63.9083 207.051C63.4904 206.928 63.0726 206.944 62.697 207.108C62.23 207.313 61.7818 207.751 61.4044 208.443C58.0352 214.619 63.4749 217.575 68.7105 217.626C67.4968 214.973 67.325 210.149 65.4345 208.082Z" fill="#BABDE6"/>
<path d="M57.7401 207.576C57.8686 207.281 58.0129 206.984 58.1762 206.684C58.9682 205.232 60.0334 204.257 61.2268 203.736C62.4108 203.217 63.6874 203.154 64.9316 203.519C65.8152 203.777 66.6741 204.253 67.458 204.933C67.8548 201.94 68.5933 198.906 69.4885 196.059C70.9939 191.27 71.297 185.794 70.4326 179.154C69.5494 172.372 67.4494 164.377 64.1706 154.682C57.7477 135.691 64.8831 117.046 65.8263 114.729C66.3914 110.031 67.3027 105.809 68.1173 102.633C67.9868 102.682 67.855 102.729 67.7222 102.774C65.6915 104.649 53.6529 116.741 56.2756 137.667C56.2905 137.741 56.3013 137.817 56.3072 137.893C56.9915 143.16 58.6025 148.981 61.5343 155.339C61.9595 156.263 61.5566 157.357 60.6332 157.782C59.7098 158.207 58.6153 157.804 58.1902 156.881C56.3638 152.921 55.0226 149.151 54.0761 145.574C52.4862 152.296 51.1756 163.012 55.0981 173.332C59.5199 184.964 58.6844 193.087 58.0081 199.665C57.7065 202.601 57.4384 205.205 57.7401 207.576Z" fill="#BABDE6"/>
<path d="M83.9528 222.289C83.8122 221.703 83.6688 221.125 83.5238 220.561C83.2463 219.483 82.9391 218.395 82.6055 217.342C82.2287 216.153 81.6264 215.203 80.9066 214.483C80.1095 213.687 79.1646 213.166 78.2254 212.911C77.3335 212.669 76.4652 212.664 75.7593 212.888C75.3987 213.002 75.089 213.178 74.8589 213.407C73.2694 214.997 74.1056 219.673 77.3367 220.813C78.281 221.146 79.3279 221.44 80.4445 221.687C81.5452 221.93 82.7238 222.132 83.9528 222.289Z" fill="#BABDE6"/>
<path d="M99.3256 218.977C100.249 217.069 100.227 215.011 97.8956 213.556C96.7416 212.836 95.2077 212.462 93.524 212.574C88.9941 212.874 86.9168 215.297 86.1851 216.432C86.4695 217.349 86.7739 218.45 87.0843 219.654C87.3348 220.625 87.577 221.625 87.806 222.617C89.2447 222.681 90.7114 222.68 92.1718 222.609C95.8665 222.428 97.5597 222.622 99.3256 218.977Z" fill="#BABDE6"/>
<path d="M108.94 213.532C105.944 213.43 104.207 215.378 103.553 216.303C103.657 217.744 103.328 219.166 102.721 220.467C106.058 219.037 108.278 217.105 108.94 213.532Z" fill="#BABDE6"/>
<path d="M102.083 212.449C103.592 211.058 105.958 209.653 109.262 209.856C109.2 206.077 107.893 203.012 106.483 199.704L105.175 196.639C102.238 189.816 96.8288 177.249 97.3697 163.105C97.409 162.074 97.4538 161.144 97.5008 160.165C98.0935 147.761 99.0364 128.061 83.3468 115.305C82.559 114.665 82.4394 113.507 83.0801 112.719C83.7206 111.931 84.8789 111.811 85.6671 112.452C102.8 126.381 101.803 147.218 101.176 160.338C101.125 161.406 101.076 162.427 101.045 163.235C100.536 176.539 105.737 188.622 108.561 195.184L109.334 196.989L109.87 198.262L109.911 198.361C110.481 194.337 111.435 190.327 112.331 186.559C113.136 183.176 113.894 179.993 114.246 177.343C115.43 168.466 116.429 158.084 116.749 154.647C113.417 152.604 110.603 149.828 108.254 146.65C102.248 138.524 99.3084 127.724 98.5315 120.04C97.9738 114.524 98.5081 110.023 98.9957 105.918C99.0877 105.145 99.1773 104.387 99.2568 103.64C95.4546 102.012 91.6417 100.227 88.0976 98.3218C84.0444 96.1436 80.33 93.796 77.3642 91.3295C77.026 91.0474 76.6996 90.7624 76.3797 90.4751C75.7253 92.334 74.7169 94.9628 73.3158 97.996C73.0305 98.8144 70.5461 106.126 69.4571 115.251C69.454 115.359 69.4412 115.469 69.4185 115.577C68.7806 121.122 68.6686 127.309 69.878 133.106C70.0846 134.101 69.4461 135.076 68.4515 135.283C67.4566 135.489 66.4816 134.851 66.2751 133.856C66.0268 132.666 65.8308 131.462 65.6804 130.251C64.8193 136.901 64.8408 145.168 67.6589 153.5C71.009 163.405 73.1611 171.625 74.079 178.678C75.0157 185.871 74.6707 191.855 73.0055 197.154C71.4778 202.015 70.4332 207.401 70.9549 211.905C70.9921 212.138 71.0244 212.374 71.052 212.616L71.0533 212.625L71.0684 212.72C71.3199 212.006 71.6998 211.349 72.2502 210.799C72.9081 210.141 73.7305 209.662 74.6495 209.372C76.0176 208.938 77.6172 208.923 79.1906 209.35C80.7167 209.765 82.2398 210.599 83.5151 211.875C83.816 212.176 84.1033 212.501 84.373 212.851C85.9955 211.146 88.8042 209.195 93.2932 208.898C95.76 208.734 98.0595 209.314 99.8415 210.428C100.723 210.979 101.483 211.66 102.083 212.449Z" fill="#BABDE6"/>
<path d="M128.048 222.592C128.535 219.826 128.19 217.6 127.379 215.902C126.734 214.55 125.793 213.529 124.755 212.842C123.743 212.17 122.653 211.816 121.676 211.78C120.871 211.751 120.173 211.938 119.733 212.342C113.964 217.651 122.457 222.155 128.048 222.592Z" fill="#BABDE6"/>
<path d="M146.724 218.436L146.988 218.28C148.743 217.184 150.018 215.787 150.857 214.176C151.502 212.938 152.853 208.685 151.137 207.79C151.118 207.779 151.087 207.775 151.043 207.78C146.561 208.246 147.093 215.75 146.724 218.436Z" fill="#BABDE6"/>
<path d="M131.831 218.173C132.009 219.527 132.005 221.016 131.77 222.636C135.603 222.447 139.428 221.578 142.621 220.373C142.66 220.357 142.7 220.34 142.741 220.326C143.214 216.962 144.229 211.762 138.995 212.105C136.677 212.257 135.039 212.71 133.882 213.258C130.531 214.846 131.491 215.573 131.831 218.173Z" fill="#BABDE6"/>
<path d="M144.233 209.944C144.923 208.369 146.01 206.695 147.724 205.41C148.797 204.605 149.78 204.212 150.667 204.119C150.971 204.087 151.261 204.089 151.539 204.12C150.87 201.403 149.641 198.559 147.944 195.747L147.654 195.273C142.672 187.278 143.986 174.108 145.124 162.702C145.489 159.043 145.837 155.57 145.942 152.583L145.943 152.562C145.997 151.028 146.089 149.345 146.192 147.445C146.949 133.534 148.336 108.023 138.95 94.3179C134.007 97.4859 127.569 100.034 125.132 100.947C124.97 101.806 124.816 102.679 124.673 103.563C123.273 112.182 122.822 121.752 123.17 129.365C123.446 135.419 124.643 138.764 126.026 140.442C126.419 140.919 126.814 141.23 127.186 141.411C127.491 141.559 127.775 141.615 128.022 141.603C128.278 141.592 128.491 141.51 128.633 141.393C129.739 140.481 129.933 139.665 130.034 139.237C130.816 135.949 132.873 137.26 134.639 138.9L139.318 143.248C139.768 143.632 140.026 144.227 139.954 144.859C138.221 159.958 127.079 158.153 127.048 158.148C124.611 157.889 122.356 157.3 120.272 156.442C119.853 160.833 118.943 169.945 117.893 177.819C117.5 180.772 116.734 183.989 115.921 187.41C113.798 196.336 111.33 206.715 114.894 214.514C115.095 212.767 115.745 211.007 117.24 209.633C118.416 208.55 120.048 208.041 121.806 208.105C123.436 208.164 125.202 208.721 126.788 209.772C127.714 210.386 128.586 211.17 129.34 212.12C130.88 210.475 133.687 208.763 138.764 208.429C141.18 208.271 142.955 208.88 144.233 209.944Z" fill="#BABDE6"/>
<path fill-rule="evenodd" clip-rule="evenodd" d="M93.2968 61.9437C93.2968 61.9437 94.2769 57.2198 93.3451 52.5655C92.1548 46.6241 87.6346 40.9296 82.0898 47.2367C80.7316 48.7825 79.2695 50.4434 77.106 50.8455C77.106 50.8455 80.4212 51.662 81.5742 53.7761C82.7271 55.8903 84.3126 61.8957 93.2968 61.9437Z" fill="#374C40"/>
<path fill-rule="evenodd" clip-rule="evenodd" d="M80.9468 44.9862C80.9468 44.9862 83.8774 40.3262 87.9611 39.6534C92.045 38.9806 91.8048 43.9292 97.1851 44.9382C97.1851 44.9382 94.9507 45.8032 91.4919 43.521C88.033 41.2387 85.3192 40.6626 80.9468 44.9862Z" fill="#374C40"/>
<path fill-rule="evenodd" clip-rule="evenodd" d="M130.35 61.9437C130.35 61.9437 129.37 57.2198 130.302 52.5655C131.492 46.6241 136.013 40.9296 141.557 47.2367C142.916 48.7825 144.378 50.4434 146.541 50.8455C146.541 50.8455 143.226 51.662 142.073 53.7761C140.92 55.8903 139.335 61.8957 130.35 61.9437Z" fill="#374C40"/>
<path fill-rule="evenodd" clip-rule="evenodd" d="M143.731 45.72C143.731 45.72 140.8 41.0604 136.717 40.3878C132.633 39.715 132.873 44.6635 127.493 45.6722C127.493 45.6722 129.727 46.5374 133.186 44.2554C136.645 41.9729 139.359 41.3968 143.731 45.72Z" fill="#374C40"/>
</svg>
