<svg width="96" height="101" viewBox="0 0 96 101" fill="none" xmlns="http://www.w3.org/2000/svg">
<path d="M60.2839 64.1231C60.2839 64.1231 55.8099 50.8501 55.7229 37.9801C58.3939 37.9171 61.2859 37.6611 64.4449 37.1411C64.4449 37.1411 76.7299 38.0711 80.2139 42.7671C83.8589 47.6801 82.9869 52.3551 82.5119 57.8231C82.0369 63.2911 78.9459 92.7691 79.8969 98.2361C79.8969 98.2361 80.9669 100.257 77.9949 100.494C75.0239 100.732 69.9119 101.802 69.3179 99.6621C68.7239 97.5231 72.2899 96.8091 72.2899 96.8091C72.2899 96.8091 71.3389 90.8661 69.5559 88.3701C67.7719 85.8751 60.1649 72.5621 60.2839 64.1231Z" fill="#BABDE6"/>
<path d="M21.997 31.5339C25.286 31.7819 28.1419 33.9298 29.3009 37.0178C32.0959 44.4608 36.858 59.3699 34.53 69.3829C31.318 83.1939 25.858 87.6908 25.858 87.6908C25.858 87.6908 25.537 91.3848 25.858 92.6698C26.179 93.9548 31.8 91.8668 31.961 94.2758C32.122 96.6848 32.603 100.624 24.574 100.26C16.544 99.8968 15.581 97.1658 13.172 84.3188C10.903 72.2218 -4.60204 29.5259 21.997 31.5339Z" fill="#BABDE6"/>
<path d="M14.787 41.9122C29.006 78.1582 65.37 65.8982 71.936 63.3402C72.594 63.0812 72.956 62.9182 72.956 62.9182C72.838 71.4652 80.55 84.9602 82.354 87.4882C84.158 90.0172 85.127 96.0432 85.127 96.0432C85.127 96.0432 81.511 96.7602 82.11 98.9342C82.716 101.101 87.892 100.013 90.909 99.7772C91.271 99.7482 91.582 99.6882 91.833 99.6142C93.667 99.0672 92.831 97.4852 92.831 97.4852C91.87 91.9472 94.997 62.0752 95.485 56.5372C95.965 50.9912 96.845 46.2592 93.156 41.2762C90.35 37.5022 81.929 36.1272 78.577 35.7212C77.704 35.6152 76.824 35.6382 75.955 35.7662C46.231 40.1422 39.357 22.1702 39.357 22.1702C24.74 13.6522 14.787 41.9122 14.787 41.9122Z" fill="#BABDE6"/>
<path d="M1.04792 34.8371C1.29192 35.2581 1.59493 35.6652 1.97993 36.0642C6.83793 41.1212 15.9099 43.8501 20.8859 40.3161C25.8619 36.7821 43.8219 30.7482 39.3559 22.1712C39.3559 22.1712 36.9679 16.7511 33.4699 11.2801C29.9579 5.75713 25.3219 0.174149 20.8849 0.0111488C16.8109 -0.136851 13.9349 1.34915 11.7679 3.22715C9.23192 5.40815 7.65693 8.10714 6.27393 9.32014C3.70793 11.5601 -0.854077 15.8051 4.38892 18.2221C4.40392 18.2221 4.41091 18.2291 4.42591 18.2371C9.72791 20.6401 4.18192 24.0191 4.18192 24.0191C4.18192 24.0191 4.15994 24.0412 4.11494 24.0852C3.87094 24.3362 2.97592 25.2981 2.10392 26.6431C0.707919 28.8181 -0.609081 32.0051 1.04792 34.8371Z" fill="#BABDE6"/>
<path d="M19.512 50.6819C19.948 63.0369 24.828 77.936 26.026 84.317C28.436 97.168 29.398 99.896 37.428 100.258C43.573 100.532 44.733 98.2909 44.866 96.1469C44.91 95.4889 44.851 94.8379 44.814 94.2759C44.651 91.8659 39.032 93.9509 38.714 92.6639C38.389 91.3849 38.714 87.688 38.714 87.688C38.714 87.688 44.171 83.1919 47.387 69.3799C49.716 59.3679 44.954 44.462 42.159 37.016C40.998 33.925 38.137 31.7809 34.854 31.5299C22.285 30.5849 19.113 39.6129 19.512 50.6819Z" fill="#BABDE6"/>
<path d="M76.969 53.5991C76.969 53.5991 72.78 60.2681 72.96 62.9191C72.96 62.9191 71.56 57.9461 76.969 53.5991Z" fill="#BABDE6"/>
<path d="M45.366 46.8291C45.366 46.8291 49.84 60.8841 47.761 67.3001C47.761 67.3001 51.812 61.9251 45.366 46.8291Z" fill="#BABDE6"/>
<path opacity="0.5" d="M82.3539 87.4892C84.1579 90.0182 85.1269 96.0442 85.1269 96.0442C85.1269 96.0442 81.5109 96.7612 82.1099 98.9352C82.7159 101.102 87.8919 100.014 90.9089 99.7782C91.2709 99.7492 91.5819 99.6892 91.8329 99.6152C91.5219 99.3782 91.0939 99.2312 90.7239 99.0972C88.1729 98.1732 86.6789 95.4962 86.0509 92.8562C85.4299 90.2242 85.4519 87.4662 84.7789 84.8412C84.2539 82.7632 83.2999 80.8332 82.3609 78.9112C80.6459 75.4142 78.9299 71.9162 77.2149 68.4262C76.4389 66.8442 75.6399 65.2322 74.4719 63.9012C73.3999 62.6882 72.6459 62.5852 71.9359 63.3392C72.5939 63.0802 72.9559 62.9172 72.9559 62.9172C72.8379 71.4662 80.5499 84.9612 82.3539 87.4892Z" fill="#BABDE6"/>
<path opacity="0.5" d="M19.512 50.6821C19.948 63.0371 24.828 77.9361 26.026 84.3171C28.436 97.1681 29.398 99.8961 37.428 100.258C43.573 100.532 44.733 98.2911 44.866 96.1471C44.592 96.1031 44.311 96.0581 44.03 96.0291C42.307 95.8291 40.57 95.7551 38.839 95.8071C37.013 95.8591 35.038 96.0141 33.53 94.9941C32.495 94.2911 31.859 93.1381 31.327 92.0071C29.671 88.4731 28.628 84.6501 28.258 80.7681C27.977 77.8031 28.073 74.7571 27.119 71.9391C26.409 69.8611 25.145 67.9831 24.576 65.8611C24.036 63.8571 24.147 61.7431 24.132 59.6651C24.11 57.5871 23.932 55.4281 22.912 53.6171C22.351 52.6341 20.969 51.3621 19.512 50.6821Z" fill="#BABDE6"/>
<path opacity="0.5" d="M82.044 40.4213C81.347 41.9073 83.007 44.1573 85.752 45.4453C88.498 46.7333 91.289 46.5732 91.986 45.0862C92.683 43.6002 91.023 41.3503 88.278 40.0623C85.532 38.7743 82.741 38.9353 82.044 40.4213Z" fill="#BABDE6"/>
<path opacity="0.5" d="M76.585 43.3992C76.219 44.1792 77.09 45.3591 78.531 46.0351C79.971 46.7111 81.436 46.6272 81.802 45.8472C82.168 45.0672 81.297 43.8871 79.856 43.2111C78.415 42.5351 76.951 42.6192 76.585 43.3992Z" fill="#BABDE6"/>
<path opacity="0.5" d="M72.9559 62.919C72.9559 62.919 50.7259 62.378 47.6599 56.373C47.6599 56.373 49.3699 64.153 47.7599 67.3C47.7599 67.3 60.7489 68.34 72.9559 62.919Z" fill="#BABDE6"/>
<path d="M23.905 18.809C24.119 20.719 25.25 22.161 26.433 22.029C27.616 21.897 28.401 20.2409 28.188 18.3299C27.974 16.4199 26.842 14.9779 25.66 15.1099C24.477 15.2419 23.692 16.898 23.905 18.809Z" fill="#BABDE6"/>
<path d="M23.9959 18.7991C24.1489 20.1681 24.9599 21.2011 25.8079 21.1061C26.6549 21.0111 27.2179 19.8251 27.0649 18.4561C26.9119 17.0871 26.1009 16.0541 25.2539 16.1491C24.4059 16.2431 23.8429 17.4301 23.9959 18.7991Z" fill="#BABDE6"/>
<path d="M4.11597 24.0838C5.86097 23.9798 7.61297 23.8768 9.35797 23.7808C10.482 23.7148 11.613 23.6478 12.73 23.4778C13.987 23.2858 15.421 22.7828 15.806 21.5698C16.183 20.4088 15.34 19.1448 14.253 18.6118C13.159 18.0798 11.887 18.0939 10.674 18.1239C8.78898 18.1679 6.48198 17.9238 4.38898 18.2198C4.40398 18.2198 4.41096 18.2268 4.42596 18.2348C9.72796 20.6378 4.18198 24.0168 4.18198 24.0168C4.18198 24.0168 4.15997 24.0398 4.11597 24.0838Z" fill="#BABDE6"/>
<path d="M1.04794 34.8351C1.52894 34.5981 1.94293 34.2211 2.17193 33.7481C2.71893 32.6241 2.20196 31.2491 2.51996 30.0441C2.67496 29.4751 3.00793 28.9501 3.00793 28.3661C3.01493 27.8341 2.63096 27.0431 2.10596 26.6431C0.706955 28.8161 -0.609058 32.0031 1.04794 34.8351Z" fill="#BABDE6"/>
<path d="M9.79993 20.8252C9.79993 21.9642 10.4979 22.8882 11.3579 22.8882C12.2179 22.8882 12.9159 21.9652 12.9159 20.8252C12.9159 19.6862 12.2179 18.7622 11.3579 18.7622C10.4979 18.7622 9.79993 19.6862 9.79993 20.8252Z" fill="#BABDE6"/>
<path d="M10.4049 20.116C10.3579 20.543 10.581 20.918 10.903 20.953C11.225 20.989 11.525 20.6721 11.572 20.2451C11.619 19.8181 11.3959 19.4431 11.0739 19.4081C10.7519 19.3721 10.4519 19.689 10.4049 20.116Z" fill="white"/>
<path d="M1.44091 35.488C1.16691 35.855 0.930902 36.317 1.0649 36.755C1.2329 37.303 1.8729 37.525 2.4269 37.668C2.8449 37.776 3.26189 37.885 3.67989 37.994C3.91589 38.055 4.15591 38.118 4.35891 38.252C4.64491 38.44 4.8279 38.745 5.0039 39.039C5.4439 39.772 6.0009 40.564 6.8449 40.701C7.5249 40.811 8.21392 40.435 8.64492 39.898C9.07592 39.361 9.2909 38.684 9.4529 38.015C9.5979 37.417 9.70792 36.794 9.59292 36.19C9.41592 35.262 8.7119 34.491 7.8669 34.069C7.0219 33.647 6.05089 33.537 5.10689 33.572C3.56589 33.628 2.36591 34.247 1.44091 35.488Z" fill="#BABDE6"/>
<path opacity="0.5" d="M11.7689 3.22705C13.2029 3.77405 14.8229 3.74506 16.3679 3.66306C18.1349 3.58206 19.9759 3.47105 21.6029 4.16605C23.5029 4.97205 24.7969 6.71703 26.2979 8.12903C27.3179 9.09003 30.9859 11.3231 33.4699 11.2791C29.9579 5.75605 25.3219 0.173041 20.8849 0.0100406C16.8119 -0.136959 13.9349 1.34905 11.7689 3.22705Z" fill="#BABDE6"/>
</svg>
