<svg width="63" height="62" viewBox="0 0 63 62" fill="none" xmlns="http://www.w3.org/2000/svg">
<path d="M38.866 23.8369C39.175 23.8359 39.423 23.6838 39.668 23.5078C39.948 23.3078 40.228 23.1068 40.506 22.9028C41.069 22.4898 41.616 22.0348 42.154 21.5908C43.208 20.7208 44.185 19.7538 45.181 18.8208C47.177 16.9518 49.169 15.0798 51.153 13.1978C51.694 12.6848 52.235 12.1718 52.776 11.6588C53.357 11.1078 54.065 10.5758 54.506 9.90484C55.009 9.13784 54.028 8.24085 53.279 8.67785C52.674 9.03185 52.175 9.63085 51.669 10.1129C51.174 10.5839 50.679 11.0548 50.183 11.5258C49.193 12.4678 48.198 13.4058 47.212 14.3528C45.242 16.2438 43.229 18.1048 41.328 20.0638C40.809 20.5988 40.319 21.1648 39.826 21.7238C39.578 22.0048 39.358 22.3088 39.118 22.5978C38.874 22.8908 38.623 23.1789 38.6 23.5739C38.595 23.7149 38.73 23.8379 38.866 23.8369Z" fill="#BABDE6"/>
<path d="M23.011 38.81C22.062 39.288 21.249 40.088 20.466 40.797C19.678 41.511 18.887 42.221 18.102 42.94C16.535 44.376 14.953 45.799 13.332 47.174C12.414 47.953 11.489 48.724 10.557 49.488C10.14 49.83 10.176 50.589 10.557 50.938C10.99 51.336 11.573 51.314 12.007 50.938C15.214 48.161 18.412 45.34 21.402 42.329C22.238 41.487 23.193 40.61 23.748 39.548C24.003 39.06 23.495 38.566 23.011 38.81Z" fill="#BABDE6"/>
<path d="M25.468 24.162C25.484 23.589 25.034 23.064 24.668 22.672C24.256 22.232 23.847 21.791 23.417 21.368C22.542 20.508 21.661 19.66 20.759 18.829C18.971 17.181 17.185 15.531 15.395 13.885C14.37 12.942 13.338 12.007 12.309 11.069C11.91 10.705 11.239 10.646 10.851 11.069C10.491 11.461 10.421 12.144 10.851 12.527C12.684 14.16 14.519 15.79 16.36 17.414C18.187 19.025 19.995 20.657 21.872 22.209C22.42 22.662 22.974 23.102 23.539 23.531C24.025 23.9 24.634 24.419 25.293 24.338C25.389 24.326 25.465 24.267 25.468 24.162Z" fill="#BABDE6"/>
<path d="M38.128 38.6988C38.026 39.2568 38.559 39.8258 38.896 40.2308C39.253 40.6598 39.639 41.0698 40.014 41.4828C40.795 42.3398 41.563 43.2098 42.367 44.0458C43.945 45.6868 45.519 47.3308 47.107 48.9618C48.016 49.8958 48.926 50.8298 49.835 51.7638C50.223 52.1618 50.951 52.1818 51.335 51.7638C51.724 51.3408 51.754 50.6828 51.335 50.2638C48.103 47.0298 44.894 43.7688 41.554 40.6448C41.085 40.2058 40.613 39.7718 40.139 39.3388C39.882 39.1038 39.601 38.8988 39.322 38.6898C39.047 38.4828 38.789 38.3318 38.436 38.3908C38.299 38.4128 38.153 38.5618 38.128 38.6988Z" fill="#BABDE6"/>
<path d="M32.339 25.1379C32.404 25.0549 32.48 24.9719 32.536 24.8829C32.585 24.8059 32.752 24.3579 32.62 24.6419C32.476 24.9539 32.758 24.4349 32.789 24.3609C32.841 24.2369 32.881 24.1229 32.915 23.9939C33.009 23.6439 33.079 23.2889 33.134 22.9299C33.26 22.1169 33.364 21.3019 33.469 20.4869C33.656 19.0389 33.699 17.5729 33.766 16.1149C33.901 13.1829 34.027 10.2439 34.038 7.30789C34.044 5.64289 34.049 3.97691 34.057 2.31091C34.062 1.10291 32.991 -0.0531128 31.748 0.00188722C30.502 0.0578872 29.434 1.01591 29.439 2.31091C29.464 8.18091 29.473 14.0699 29.959 19.9239C30.035 20.8459 30.182 21.7759 30.324 22.6899C30.383 23.0699 30.45 23.4429 30.539 23.8179C30.607 24.1019 30.671 24.3749 30.854 24.6119C31.177 25.0299 30.537 24.0899 30.908 24.7879C30.976 24.9149 31.07 25.0229 31.158 25.1369C31.413 25.4649 32.086 25.4629 32.339 25.1379Z" fill="#BABDE6"/>
<path d="M36.942 31.3839C36.828 31.3059 36.921 31.3799 36.949 31.4099C37.09 31.5579 37.253 31.6399 37.435 31.7159C37.631 31.7989 37.84 31.8649 38.047 31.9199C38.487 32.0359 38.967 32.0389 39.421 32.0759C40.149 32.1349 40.878 32.1999 41.607 32.2409C43.084 32.3229 44.563 32.4019 46.042 32.4449C48.997 32.5309 51.954 32.5599 54.911 32.6059C56.577 32.6319 58.242 32.6569 59.908 32.6839C61.03 32.7019 62.104 31.6849 62.053 30.5389C62.002 29.3949 61.11 28.3719 59.908 28.3939C53.994 28.5019 48.078 28.5369 42.17 28.8479C41.336 28.8919 40.504 28.9589 39.672 29.0259C39.234 29.0609 38.792 29.0869 38.356 29.1459C38.113 29.1789 37.878 29.2509 37.645 29.3289C37.489 29.3809 37.331 29.4359 37.193 29.5289C37.112 29.5909 37.031 29.6539 36.951 29.7159C36.877 29.7969 36.874 29.8059 36.944 29.7429C36.334 30.1609 36.331 30.9659 36.942 31.3839Z" fill="#BABDE6"/>
<path d="M30.665 37.0021C30.35 37.2741 30.1899 37.7491 30.0689 38.1351C29.9359 38.5561 29.923 39.0441 29.865 39.4841C29.773 40.1881 29.691 40.8841 29.656 41.5941C29.586 43.0201 29.496 44.4461 29.52 45.8751C29.57 48.7301 29.66 51.5801 29.802 54.4311C29.841 55.2161 29.882 56.0011 29.926 56.7861C29.949 57.1991 29.972 57.6121 29.996 58.0251C30.036 58.7231 30.046 59.4291 30.437 60.0391C30.827 60.6481 31.451 61.0431 32.188 61.0431C32.854 61.0431 33.64 60.6681 33.939 60.0391C34.134 59.6281 34.292 59.2301 34.306 58.7681C34.311 58.5861 34.282 58.3931 34.27 58.2111C34.246 57.8391 34.223 57.4681 34.2 57.0961C34.157 56.3941 34.115 55.6911 34.075 54.9891C33.994 53.5641 33.922 52.1381 33.852 50.7121C33.781 49.2851 33.686 47.8601 33.612 46.4331C33.538 45.0001 33.395 43.5801 33.252 42.1531C33.163 41.2621 33.064 40.3811 32.911 39.4991C32.843 39.1051 32.799 38.6961 32.706 38.3081C32.603 37.8791 32.38 37.2901 32.028 37.0031C31.602 36.6541 31.093 36.6321 30.665 37.0021Z" fill="#BABDE6"/>
<path d="M27.025 29.7087C26.806 29.6057 26.579 29.4877 26.343 29.4287C26.11 29.3707 25.837 29.3697 25.597 29.3477C25.181 29.3097 24.764 29.2717 24.348 29.2337C23.557 29.1617 22.766 29.0897 21.974 29.0177C20.378 28.8727 18.765 28.8587 17.164 28.7957C13.98 28.6697 10.792 28.6157 7.60699 28.5337C5.79499 28.4877 3.984 28.4407 2.172 28.3727C1.49 28.3467 0.594998 28.7867 0.309998 29.4407C0.134998 29.8447 0 30.0817 0 30.5287C0 30.9767 0.134998 31.2127 0.309998 31.6177C0.593998 32.2727 1.49 32.7097 2.172 32.6857C5.378 32.5707 8.585 32.5097 11.792 32.4327C14.975 32.3567 18.17 32.3217 21.349 32.1257C22.245 32.0707 23.141 31.9677 24.035 31.8877C24.493 31.8467 24.951 31.8057 25.409 31.7647C25.617 31.7457 25.826 31.7297 26.034 31.7087C26.4 31.6717 26.693 31.5447 27.025 31.3887C27.662 31.0887 27.66 30.0087 27.025 29.7087Z" fill="#BABDE6"/>
</svg>
