<svg width="68" height="102" viewBox="0 0 68 102" fill="none" xmlns="http://www.w3.org/2000/svg">
<path d="M10.236 18.1741H57.055L62.562 11.0142H4.729L10.236 18.1741Z" fill="#BABDE6"/>
<path d="M12.713 0H4.729V11.014H12.713V0Z" fill="#BABDE6"/>
<path d="M25.1749 0H17.1909V11.014H25.1749V0Z" fill="#BABDE6"/>
<path d="M37.6371 0H29.6531V11.014H37.6371V0Z" fill="#BABDE6"/>
<path d="M50.1 0H42.116V11.014H50.1V0Z" fill="#BABDE6"/>
<path d="M62.5621 0H54.5781V11.014H62.5621V0Z" fill="#BABDE6"/>
<path d="M62.562 7.43506H4.729V11.0151H62.562V7.43506Z" fill="#BABDE6"/>
<path d="M57.0549 18.1738H10.2359L3.04492 88.2578H64.2459L57.0549 18.1738ZM40.0839 83.1578H27.2069V54.6978C27.2069 51.1418 30.0899 48.2598 33.6449 48.2598C37.2009 48.2598 40.0829 51.1428 40.0829 54.6978V83.1578H40.0839Z" fill="#BABDE6"/>
<path d="M67.291 90.4609H0V101.332H67.291V90.4609Z" fill="#BABDE6"/>
</svg>
