<svg width="109" height="153" viewBox="0 0 109 153" fill="none" xmlns="http://www.w3.org/2000/svg">
<path d="M75.296 152.879H32.75C32.186 152.879 31.628 152.755 31.117 152.515C12.213 143.641 0 124.456 0 103.639C0 82.446 12.195 63.491 31.292 54.647V3.843C31.292 1.721 33.013 0 35.135 0H72.911C75.033 0 76.754 1.721 76.754 3.843V13.928C76.754 16.05 75.033 17.771 72.911 17.771C70.789 17.771 69.068 16.05 69.068 13.928V7.686H38.978V57.167C38.978 58.73 38.032 60.138 36.583 60.727C19.03 67.87 7.686 84.714 7.686 103.64C7.686 121.21 17.84 137.429 33.625 145.194H74.421C90.205 137.429 100.36 121.21 100.36 103.64C100.36 84.714 89.016 67.87 71.463 60.727C70.014 60.138 69.068 58.731 69.068 57.167V28.447C69.068 26.325 70.789 24.604 72.911 24.604C75.033 24.604 76.754 26.325 76.754 28.447V54.648C95.85 63.492 108.046 82.446 108.046 103.64C108.046 124.457 95.833 143.642 76.929 152.516C76.417 152.754 75.86 152.879 75.296 152.879Z" fill="#BABDE6"/>
<path d="M14.0641 91.314C12.8611 95.234 12.2231 99.378 12.2231 103.639C12.2231 119.143 20.9931 133.481 34.7101 140.656H73.3351C87.0521 133.481 95.8221 119.143 95.8221 103.639C95.8221 99.378 95.1841 95.234 93.9811 91.314H14.0641Z" fill="#BABDE6"/>
<path d="M29.201 119.636C34.8801 119.636 39.484 115.032 39.484 109.353C39.484 103.674 34.8801 99.0698 29.201 99.0698C23.5218 99.0698 18.918 103.674 18.918 109.353C18.918 115.032 23.5218 119.636 29.201 119.636Z" fill="white"/>
<path d="M65.1801 86.112C68.8588 86.112 71.841 83.1298 71.841 79.451C71.841 75.7723 68.8588 72.79 65.1801 72.79C61.5013 72.79 58.519 75.7723 58.519 79.451C58.519 83.1298 61.5013 86.112 65.1801 86.112Z" fill="#BABDE6"/>
<path d="M54.1159 64.4922C54.1159 66.6432 52.3719 68.3872 50.2209 68.3872C48.0699 68.3872 46.3259 66.6432 46.3259 64.4922C46.3259 62.3412 48.0699 60.5972 50.2209 60.5972C52.3729 60.5972 54.1159 62.3412 54.1159 64.4922Z" fill="#BABDE6"/>
</svg>
